# xmcd
#
# Track frame offsets:
#	150
#	15057
#	26525
#	41072
#	56677
#	74755
#	86130
#	95367
#	110422
#	125870
#	136747
#	147757
#	156350
#	175909
#
# Disc length: 2515 seconds
#
# Revision: 1
# Processed by: cddbd v1.5.2PL0 Copyright (c) Steve Scherf et al.
# Submitted via: audiograbber 1.83.01
#
DISCID=c009d10e
DTITLE=Maureen Woods - Heart To Heart
DYEAR=1900
DGENRE=Country
TTITLE0=Livin On Love
TTITLE1=One Smokey Rose
TTITLE2=Sixteenth Avenue
TTITLE3=Holding Things Together
TTITLE4=Infamous Angel
TTITLE5=Doing The Job Very Well
TTITLE6=Heart To Heart
TTITLE7=Walk The Way The Wind Blows
TTITLE8=Save The Last Dance.
TTITLE9=Brass Buckles
TTITLE10='Cause I Have You
TTITLE11=City Lights
TTITLE12=Till I Gain Control
TTITLE13=It All Came True
EXTD=
EXTT0=
EXTT1=
EXTT2=
EXTT3=
EXTT4=
EXTT5=
EXTT6=
EXTT7=
EXTT8=
EXTT9=
EXTT10=
EXTT11=
EXTT12=
EXTT13=
PLAYORDER=
